<svg width="24" height="24" viewBox="0 0 24 24" fill="none" xmlns="http://www.w3.org/2000/svg">
<g clip-path="url(#clip0_177_3118)">
<path d="M16.5 14.5C16.5 14.8978 16.342 15.2794 16.0607 15.5607C15.7794 15.842 15.3978 16 15 16H13.5V17.5C13.5 17.8978 13.342 18.2794 13.0607 18.5607C12.7794 18.842 12.3978 19 12 19C11.6022 19 11.2206 18.842 10.9393 18.5607C10.658 18.2794 10.5 17.8978 10.5 17.5V16H9C8.60218 16 8.22064 15.842 7.93934 15.5607C7.65804 15.2794 7.5 14.8978 7.5 14.5C7.5 14.1022 7.65804 13.7206 7.93934 13.4393C8.22064 13.158 8.60218 13 9 13H10.5V11.5C10.5 11.1022 10.658 10.7206 10.9393 10.4393C11.2206 10.158 11.6022 10 12 10C12.3978 10 12.7794 10.158 13.0607 10.4393C13.342 10.7206 13.5 11.1022 13.5 11.5V13H15C15.3978 13 15.7794 13.158 16.0607 13.4393C16.342 13.7206 16.5 14.1022 16.5 14.5ZM22 8.157V18.5C21.9984 19.9582 21.4184 21.3562 20.3873 22.3873C19.3562 23.4184 17.9582 23.9984 16.5 24H7.5C6.0418 23.9984 4.64377 23.4184 3.61267 22.3873C2.58156 21.3562 2.00159 19.9582 2 18.5V5.5C2.00159 4.0418 2.58156 2.64378 3.61267 1.61267C4.64377 0.581565 6.0418 0.00159281 7.5 4.64228e-06H13.843C14.5656 -0.00194542 15.2813 0.139435 15.9489 0.415964C16.6164 0.692492 17.2225 1.09868 17.732 1.611L20.389 4.268C20.9013 4.77752 21.3075 5.38359 21.584 6.05114C21.8606 6.71869 22.0019 7.43445 22 8.157ZM19 18.5V9H15C14.4696 9 13.9609 8.78929 13.5858 8.41422C13.2107 8.03915 13 7.53044 13 7V3H7.5C6.83696 3 6.20107 3.2634 5.73223 3.73224C5.26339 4.20108 5 4.83696 5 5.5V18.5C5 19.163 5.26339 19.7989 5.73223 20.2678C6.20107 20.7366 6.83696 21 7.5 21H16.5C17.163 21 17.7989 20.7366 18.2678 20.2678C18.7366 19.7989 19 19.163 19 18.5Z" fill="#3498D8"/>
</g>
<defs>
<clipPath id="clip0_177_3118">
<rect width="24" height="24" fill="white"/>
</clipPath>
</defs>
</svg>
