<svg width="24" height="24" viewBox="0 0 24 24" fill="none" xmlns="http://www.w3.org/2000/svg">
<path d="M17 0H7C4.243 0 2 2.243 2 5V19C2 21.757 4.243 24 7 24H17C19.757 24 22 21.757 22 19V5C22 2.243 19.757 0 17 0ZM7 2H17C18.654 2 20 3.346 20 5H4C4 3.346 5.346 2 7 2ZM17 22H7C5.346 22 4 20.654 4 19V7H20V19C20 20.654 18.654 22 17 22ZM17 11C17 11.2652 16.8946 11.5196 16.7071 11.7071C16.5196 11.8946 16.2652 12 16 12H8C7.73478 12 7.48043 11.8946 7.29289 11.7071C7.10536 11.5196 7 11.2652 7 11C7 10.7348 7.10536 10.4804 7.29289 10.2929C7.48043 10.1054 7.73478 10 8 10H16C16.2652 10 16.5196 10.1054 16.7071 10.2929C16.8946 10.4804 17 10.7348 17 11ZM13 15C13 15.2652 12.8946 15.5196 12.7071 15.7071C12.5196 15.8946 12.2652 16 12 16H8C7.73478 16 7.48043 15.8946 7.29289 15.7071C7.10536 15.5196 7 15.2652 7 15C7 14.7348 7.10536 14.4804 7.29289 14.2929C7.48043 14.1054 7.73478 14 8 14H12C12.2652 14 12.5196 14.1054 12.7071 14.2929C12.8946 14.4804 13 14.7348 13 15Z" fill="#3498D8"/>
</svg>
