<svg width="24" height="24" viewBox="0 0 24 24" fill="none" xmlns="http://www.w3.org/2000/svg">
<mask id="path-1-inside-1_151_2335" fill="white">
<path d="M24 3C24 3.55 23.55 4 23 4H1C0.45 4 0 3.55 0 3C0 2.45 0.45 2 1 2H23C23.55 2 24 2.45 24 3ZM7 20H1C0.45 20 0 20.45 0 21C0 21.55 0.45 22 1 22H7C7.55 22 8 21.55 8 21C8 20.45 7.55 20 7 20ZM15 11H1C0.45 11 0 11.45 0 12C0 12.55 0.45 13 1 13H15C15.55 13 16 12.55 16 12C16 11.45 15.55 11 15 11Z"/>
</mask>
<path d="M24 3C24 3.55 23.55 4 23 4H1C0.45 4 0 3.55 0 3C0 2.45 0.45 2 1 2H23C23.55 2 24 2.45 24 3ZM7 20H1C0.45 20 0 20.45 0 21C0 21.55 0.45 22 1 22H7C7.55 22 8 21.55 8 21C8 20.45 7.55 20 7 20ZM15 11H1C0.45 11 0 11.45 0 12C0 12.55 0.45 13 1 13H15C15.55 13 16 12.55 16 12C16 11.45 15.55 11 15 11Z" fill="#3498D8"/>
<path d="M22 3C22 2.44543 22.4454 2 23 2V6C24.6546 6 26 4.65457 26 3H22ZM23 2H1V6H23V2ZM1 2C1.55457 2 2 2.44543 2 3H-2C-2 4.65457 -0.65457 6 1 6V2ZM2 3C2 3.55457 1.55457 4 1 4V0C-0.65457 0 -2 1.34543 -2 3H2ZM1 4H23V0H1V4ZM23 4C22.4454 4 22 3.55457 22 3H26C26 1.34543 24.6546 0 23 0V4ZM7 18H1V22H7V18ZM1 18C-0.65457 18 -2 19.3454 -2 21H2C2 21.5546 1.55457 22 1 22V18ZM-2 21C-2 22.6546 -0.65457 24 1 24V20C1.55457 20 2 20.4454 2 21H-2ZM1 24H7V20H1V24ZM7 24C8.65457 24 10 22.6546 10 21H6C6 20.4454 6.44543 20 7 20V24ZM10 21C10 19.3454 8.65457 18 7 18V22C6.44543 22 6 21.5546 6 21H10ZM15 9H1V13H15V9ZM1 9C-0.65457 9 -2 10.3454 -2 12H2C2 12.5546 1.55457 13 1 13V9ZM-2 12C-2 13.6546 -0.65457 15 1 15V11C1.55457 11 2 11.4454 2 12H-2ZM1 15H15V11H1V15ZM15 15C16.6546 15 18 13.6546 18 12H14C14 11.4454 14.4454 11 15 11V15ZM18 12C18 10.3454 16.6546 9 15 9V13C14.4454 13 14 12.5546 14 12H18Z" fill="#3498D8" mask="url(#path-1-inside-1_151_2335)"/>
</svg>
