<svg width="24" height="24" viewBox="0 0 24 24" fill="none" xmlns="http://www.w3.org/2000/svg">
<g clip-path="url(#clip0_1140_4860)">
<path d="M19 4H17.899C17.6668 2.87167 17.0528 1.85784 16.1605 1.12926C15.2681 0.40068 14.152 0.00187146 13 0L5 0C2.243 0 3.73692e-06 2.243 3.73692e-06 5V17.854C-0.000523299 18.1364 0.0547025 18.416 0.162513 18.677C0.270324 18.938 0.428598 19.1751 0.628256 19.3747C0.827914 19.5744 1.06503 19.7327 1.32599 19.8405C1.58696 19.9483 1.86665 20.0035 2.149 20.003C2.565 20.003 2.98 19.882 3.339 19.643L6.289 17.676C6.63617 18.6479 7.27505 19.4888 8.1183 20.0838C8.96154 20.6788 9.96799 20.9987 11 21H16.697L20.661 23.643C20.9844 23.859 21.3605 23.9829 21.7489 24.0014C22.1374 24.0199 22.5236 23.9323 22.866 23.748C23.566 23.374 24 22.648 24 21.854V9C24 6.243 21.757 4 19 4ZM2.23 17.979C2.211 17.991 2.155 18.027 2.078 17.986C1.999 17.944 1.999 17.877 1.999 17.855V5C1.999 3.346 3.345 2 4.999 2H12.999C14.653 2 15.999 3.346 15.999 5V12C15.999 13.654 14.653 15 12.999 15H6.999C6.672 15 6.458 15.159 6.434 15.175L2.23 17.979ZM22 21.855C22 21.876 22 21.944 21.921 21.986C21.8979 21.9998 21.8713 22.0065 21.8445 22.0052C21.8176 22.004 21.7917 21.9949 21.77 21.979L17.555 19.168C17.3906 19.0586 17.1975 19.0001 17 19H11C10.3798 18.9993 9.77507 18.8067 9.26872 18.4486C8.76238 18.0905 8.37928 17.5845 8.172 17H13C15.757 17 18 14.757 18 12V6H19C20.654 6 22 7.346 22 9V21.855Z" fill="#252525"/>
</g>
<defs>
<clipPath id="clip0_1140_4860">
<rect width="24" height="24" fill="white"/>
</clipPath>
</defs>
</svg>
