<svg width="24" height="22" viewBox="0 0 24 22" fill="none" xmlns="http://www.w3.org/2000/svg">
<path d="M23.5622 8.05902L10.9741 20.681C10.5573 21.1006 10.0613 21.4332 9.51487 21.6596C8.96849 21.886 8.38259 22.0017 7.79115 22H7.78215C7.18928 22.0001 6.6023 21.8825 6.05523 21.654C5.50816 21.4255 5.01188 21.0907 4.59515 20.669L0.445149 16.566C0.162296 16.2862 0.00217874 15.9055 2.20703e-05 15.5077C-0.0021346 15.1098 0.153846 14.7274 0.433649 14.4445C0.713453 14.1617 1.09416 14.0016 1.49202 13.9994C1.88988 13.9972 2.2723 14.1532 2.55515 14.433L6.71515 18.545C7.00815 18.84 7.38515 18.998 7.78815 18.999H7.79115C8.19115 18.999 8.56815 18.843 8.85215 18.56L21.4391 5.94002C21.5773 5.79658 21.7427 5.68208 21.9256 5.60322C22.1085 5.52436 22.3052 5.48271 22.5044 5.4807C22.7035 5.4787 22.9011 5.51637 23.0856 5.59153C23.27 5.66669 23.4376 5.77783 23.5787 5.91847C23.7197 6.0591 23.8313 6.22642 23.907 6.41065C23.9827 6.59488 24.0209 6.79233 24.0195 6.9915C24.018 7.19066 23.9769 7.38754 23.8986 7.57066C23.8202 7.75377 23.7062 7.91945 23.5632 8.05802L23.5622 8.05902ZM5.02415 10.767C5.40958 11.1578 5.86887 11.4681 6.37532 11.6798C6.88176 11.8915 7.42525 12.0003 7.97415 12H7.98315C8.53184 12.0011 9.07529 11.8933 9.58202 11.6829C10.0887 11.4724 10.5487 11.1635 10.9352 10.774L19.0662 2.55502C19.3461 2.27217 19.5022 1.8897 19.5001 1.49175C19.4981 1.09379 19.338 0.71296 19.0552 0.433024C18.7723 0.153088 18.3898 -0.00301927 17.9919 -0.000956374C17.5939 0.00110653 17.2131 0.161171 16.9332 0.444024L8.80715 8.65702C8.58715 8.87802 8.29415 8.99902 7.98215 8.99902H7.98015C7.66715 8.99902 7.37415 8.87602 7.16715 8.66702L3.57815 4.95602C3.44148 4.81321 3.27793 4.69883 3.0969 4.61944C2.91587 4.54005 2.72093 4.49722 2.5233 4.49342C2.32566 4.48962 2.12923 4.52492 1.94528 4.59729C1.76133 4.66966 1.5935 4.77768 1.45144 4.91513C1.30938 5.05258 1.19589 5.21675 1.11749 5.39821C1.03908 5.57967 0.997322 5.77483 0.9946 5.97248C0.991878 6.17014 1.02825 6.36638 1.10162 6.54993C1.175 6.73348 1.28393 6.90071 1.42215 7.04202L5.02515 10.766L5.02415 10.767Z" fill="#A5A5A5"/>
</svg>
