<svg width="16" height="16" viewBox="0 0 16 16" fill="none" xmlns="http://www.w3.org/2000/svg">
<path d="M6.46646 3.33331C7.38693 3.33331 8.13312 2.58712 8.13312 1.66666C8.13312 0.746187 7.38693 0 6.46646 0C5.54599 0 4.7998 0.746187 4.7998 1.66666C4.7998 2.58712 5.54599 3.33331 6.46646 3.33331Z" fill="black"/>
<path d="M6.46646 9.66666C7.38693 9.66666 8.13312 8.92047 8.13312 8C8.13312 7.07953 7.38693 6.33334 6.46646 6.33334C5.54599 6.33334 4.7998 7.07953 4.7998 8C4.7998 8.92047 5.54599 9.66666 6.46646 9.66666Z" fill="black"/>
<path d="M6.46646 16C7.38693 16 8.13312 15.2538 8.13312 14.3333C8.13312 13.4129 7.38693 12.6667 6.46646 12.6667C5.54599 12.6667 4.7998 13.4129 4.7998 14.3333C4.7998 15.2538 5.54599 16 6.46646 16Z" fill="black"/>
</svg>
