<svg width="24" height="24" viewBox="0 0 24 24" fill="none" xmlns="http://www.w3.org/2000/svg">
<path d="M9.23625 4.23635L10.3531 5.13405L9.97721 6.51682C9.92297 6.71637 9.996 6.92384 10.1633 7.04538C10.3306 7.16698 10.5505 7.17232 10.7235 7.05907L11.9224 6.27424L13.1213 7.05907C13.2016 7.11198 13.2956 7.14025 13.3917 7.1404C13.4933 7.1404 13.5945 7.10862 13.6816 7.04534C13.8488 6.92379 13.9219 6.71632 13.8676 6.51682L13.4917 5.1341L14.6086 4.2364C14.7698 4.10684 14.8327 3.89604 14.7688 3.69935C14.7048 3.50266 14.5301 3.36907 14.3235 3.35904L12.8923 3.28929L12.3837 1.9497C12.3104 1.75662 12.1294 1.63184 11.9225 1.63184H11.9224C11.7155 1.63184 11.5345 1.75657 11.4612 1.94965L10.9526 3.28924L9.52139 3.35899C9.31486 3.36902 9.14011 3.50262 9.07617 3.6993C9.01224 3.89599 9.07505 4.10679 9.23625 4.23635ZM11.1568 4.0302C11.2527 4.02553 11.3451 3.99299 11.4228 3.93656C11.5005 3.88014 11.56 3.80228 11.5941 3.71252L11.9224 2.84777L12.2507 3.71248C12.2847 3.80225 12.3443 3.88012 12.4219 3.93656C12.4996 3.993 12.592 4.02554 12.6879 4.0302L13.6119 4.07524L12.891 4.65471C12.8161 4.71483 12.7604 4.7955 12.7307 4.88681C12.7011 4.97811 12.6987 5.0761 12.7239 5.16874L12.9666 6.06134L12.1926 5.55466C12.1123 5.5021 12.0184 5.4741 11.9224 5.47411C11.8264 5.47412 11.7325 5.50213 11.6522 5.55471L10.8782 6.06134L11.1209 5.16879C11.1724 4.97932 11.1068 4.77752 10.9539 4.65476L10.2329 4.07524L11.1568 4.0302ZM4.27017 7.00648L5.68627 7.22548L6.05213 8.61096C6.10491 8.81088 6.27192 8.95399 6.47761 8.9756C6.49542 8.97748 6.5131 8.97841 6.53063 8.97841C6.71588 8.97841 6.88439 8.87595 6.96952 8.70734L7.61536 7.42821L9.04608 7.50841C9.25233 7.52013 9.4403 7.40534 9.52439 7.21643C9.60849 7.02752 9.56799 6.81129 9.42127 6.66565L8.40436 5.65615L8.92275 4.32026C8.99757 4.12751 8.94661 3.91352 8.79296 3.77515C8.6393 3.63682 8.42114 3.60841 8.23721 3.70296L6.96286 4.35818L5.85258 3.45246C5.69255 3.32187 5.47336 3.30438 5.29416 3.40784C5.11496 3.51134 5.02055 3.7099 5.05364 3.91366L5.283 5.32807L4.07841 6.10413C3.90455 6.21612 3.81999 6.41918 3.86302 6.62149C3.906 6.82376 4.06585 6.97488 4.27017 7.00648ZM5.83027 5.8677C5.91101 5.81573 5.97483 5.74133 6.0139 5.65361C6.05297 5.5659 6.06558 5.46869 6.05021 5.37391L5.90217 4.46084L6.61889 5.0456C6.69327 5.10628 6.78374 5.14395 6.87921 5.15398C6.97467 5.16401 7.07099 5.14598 7.15636 5.10209L7.97902 4.67913L7.64438 5.54145C7.60961 5.63094 7.60172 5.72864 7.62167 5.82255C7.64162 5.91646 7.68855 6.00251 7.75669 6.07015L8.41313 6.7218L7.48946 6.67001C7.39365 6.66475 7.29838 6.6875 7.21529 6.73549C7.13219 6.78348 7.06488 6.85463 7.02155 6.94024L6.6046 7.76599L6.36839 6.87152C6.34388 6.77873 6.29283 6.6951 6.2215 6.63088C6.15017 6.56667 6.06166 6.52465 5.96681 6.50998L5.05266 6.3686L5.83027 5.8677ZM6.0098 9.44323C5.98819 9.23759 5.84499 9.07062 5.64511 9.01788L4.25967 8.65207L4.04067 7.23598C4.00908 7.03165 3.85796 6.8718 3.65569 6.82882C3.45356 6.78584 3.25036 6.87035 3.13838 7.04421L2.36231 8.24876L0.947862 8.0194C0.744002 7.9864 0.545487 8.0808 0.441987 8.25996C0.338534 8.43916 0.356065 8.65835 0.486565 8.81829L1.39242 9.92857L0.737252 11.2029C0.642659 11.3868 0.670924 11.6049 0.809299 11.7586C0.947674 11.9123 1.16166 11.9634 1.35446 11.8885L2.69039 11.3702L3.69994 12.3871C3.79514 12.483 3.92053 12.5336 4.04869 12.5335C4.11656 12.5335 4.18528 12.5194 4.25067 12.4902C4.43963 12.4062 4.55424 12.2185 4.54271 12.0119L4.46246 10.5812L5.74167 9.93532C5.92617 9.84204 6.03146 9.64891 6.0098 9.44323ZM0.827815 8.75979C0.827862 8.75979 0.827862 8.75979 0.827815 8.75979V8.75979ZM3.97453 9.98735C3.8888 10.0306 3.81756 10.0979 3.76954 10.1811C3.72152 10.2642 3.69882 10.3596 3.70421 10.4554L3.756 11.379L3.10421 10.7224C3.03659 10.6543 2.95056 10.6074 2.85667 10.5875C2.76279 10.5675 2.66512 10.5754 2.57564 10.6101L1.71333 10.9448L2.13619 10.1222C2.18013 10.0368 2.19819 9.9405 2.18817 9.84501C2.17814 9.74952 2.14046 9.65903 2.07975 9.58465L1.49499 8.86788L2.40816 9.01596C2.50291 9.03133 2.60008 9.01871 2.68777 8.97966C2.77545 8.94061 2.84983 8.87682 2.9018 8.79612L3.4028 8.01851L3.54417 8.93262C3.55883 9.02749 3.60084 9.11603 3.66507 9.18738C3.7293 9.25872 3.81295 9.30978 3.90577 9.33429L4.80014 9.57045L3.97453 9.98735ZM15.4404 5.65624L14.4235 6.66574C14.2768 6.81138 14.2363 7.02762 14.3204 7.21652C14.4045 7.40548 14.5927 7.52041 14.7987 7.50851L16.2294 7.4283L16.8752 8.70743C16.9604 8.87604 17.1289 8.97851 17.3141 8.97846C17.3317 8.97846 17.3494 8.97752 17.3672 8.97565C17.5729 8.95404 17.7399 8.81084 17.7926 8.61096L18.1584 7.22552L19.5745 7.00657C19.7789 6.97498 19.9387 6.82385 19.9817 6.62159C20.0247 6.41927 19.9402 6.21621 19.7663 6.10423L18.5617 5.32816L18.791 3.9138C18.8241 3.70995 18.7297 3.51138 18.5505 3.40793C18.3713 3.30443 18.1521 3.32196 17.9921 3.45251L16.8818 4.35837L15.6075 3.7032C15.4236 3.6086 15.2055 3.63691 15.0518 3.77529C14.8981 3.91366 14.847 4.12765 14.9219 4.32045L15.4404 5.65624ZM16.2004 5.54149L15.8658 4.67913L16.6883 5.10199C16.7737 5.14594 16.87 5.16401 16.9655 5.15398C17.061 5.14396 17.1515 5.10627 17.2259 5.04555L17.9427 4.46079L17.7946 5.37396C17.7792 5.46871 17.7919 5.56588 17.8309 5.65356C17.87 5.74125 17.9337 5.81563 18.0144 5.8676L18.792 6.3686L17.8778 6.50998C17.783 6.52467 17.6945 6.5667 17.6231 6.63093C17.5518 6.69515 17.5008 6.77878 17.4763 6.87157L17.2401 7.76594L16.8231 6.94015C16.7798 6.85448 16.7125 6.7833 16.6294 6.73533C16.5463 6.68735 16.4509 6.66467 16.3551 6.67005L15.4315 6.7218L16.0881 6.07006C16.1562 6.00244 16.2031 5.91641 16.2231 5.82253C16.243 5.72864 16.2352 5.63097 16.2004 5.54149ZM19.8041 7.23602L19.5851 8.65212L18.1997 9.01793C17.9998 9.07066 17.8566 9.23768 17.835 9.44332C17.8133 9.64896 17.9186 9.84209 18.1033 9.93537L19.3824 10.5812L19.3022 12.0119C19.2906 12.2184 19.4052 12.4061 19.5942 12.4902C19.6596 12.5194 19.7283 12.5335 19.7962 12.5335C19.9244 12.5335 20.0498 12.483 20.1449 12.3871L21.1545 11.3702L22.4903 11.8886C22.683 11.9634 22.897 11.9125 23.0355 11.7588C23.1739 11.6051 23.2022 11.3869 23.1076 11.2031L22.4524 9.92866L23.3582 8.81838C23.4888 8.65835 23.5063 8.43916 23.4028 8.25996C23.2993 8.0808 23.1008 7.98668 22.8969 8.01945L21.4825 8.24881L20.7065 7.04421C20.5945 6.8704 20.3915 6.78588 20.1891 6.82882C19.9868 6.8718 19.8357 7.03165 19.8041 7.23602ZM20.3006 8.93276L20.442 8.0186L20.9429 8.79612C20.9949 8.87686 21.0693 8.94069 21.157 8.97975C21.2447 9.01882 21.3419 9.03144 21.4367 9.01605L22.3498 8.86802L21.765 9.58479C21.7043 9.65916 21.6666 9.74963 21.6566 9.8451C21.6466 9.94057 21.6646 10.0369 21.7085 10.1223L22.1315 10.9449L21.2692 10.6103C21.1797 10.5756 21.082 10.5677 20.9881 10.5876C20.8941 10.6076 20.8081 10.6545 20.7405 10.7226L20.0888 11.3791L20.1406 10.4556C20.1516 10.2596 20.0455 10.0759 19.8704 9.98749L19.0446 9.57054L19.9391 9.33434C20.0319 9.30982 20.1155 9.25877 20.1797 9.18744C20.2439 9.11611 20.286 9.02761 20.3006 8.93276ZM19.4531 14.023C18.1208 14.023 16.9323 14.6508 16.1679 15.626C15.466 14.9104 14.5942 14.3842 13.634 14.0964C14.5248 13.5288 15.1175 12.5329 15.1175 11.4006C15.1175 9.63884 13.6842 8.20554 11.9224 8.20554C10.1607 8.20554 8.72738 9.63884 8.72738 11.4006C8.72738 12.5329 9.32002 13.5289 10.2109 14.0965C9.36495 14.3501 8.58618 14.7892 7.93135 15.3819C6.84389 16.3653 6.15947 17.7064 6.00408 19.1582C5.99848 19.2105 6.00396 19.2634 6.02014 19.3134C6.03633 19.3635 6.06287 19.4096 6.09803 19.4487C6.13319 19.4878 6.1762 19.5191 6.22425 19.5406C6.2723 19.562 6.32432 19.5731 6.37692 19.5731L15.5149 19.573C16.0853 21.1986 17.6351 22.3675 19.4531 22.3675C21.7537 22.3675 23.6254 20.4958 23.6254 18.1952C23.6254 15.8945 21.7538 14.023 19.4531 14.023ZM9.47738 11.4006C9.47738 10.0524 10.5742 8.95559 11.9224 8.95559C13.2706 8.95559 14.3675 10.0524 14.3675 11.4006C14.3675 12.7489 13.2706 13.8457 11.9224 13.8457C10.5742 13.8457 9.47738 12.7489 9.47738 11.4006ZM6.81094 18.8231C7.26989 16.3856 9.39797 14.5957 11.9224 14.5957C13.3841 14.5957 14.7648 15.2048 15.7498 16.275C15.4504 16.8502 15.2808 17.5032 15.2808 18.1953C15.2808 18.4086 15.297 18.6183 15.328 18.8231L6.81094 18.8231ZM19.4531 21.6176C17.5661 21.6176 16.0308 20.0824 16.0308 18.1953C16.0308 16.3082 17.566 14.773 19.4531 14.773C21.3402 14.773 22.8754 16.3082 22.8754 18.1953C22.8754 20.0824 21.3402 21.6176 19.4531 21.6176ZM21.8605 16.397C21.7738 16.3102 21.6707 16.2415 21.5572 16.1947C21.4438 16.1478 21.3222 16.1239 21.1995 16.1243H21.1958C21.0727 16.1244 20.9508 16.149 20.8373 16.1966C20.7237 16.2442 20.6208 16.3138 20.5343 16.4015L18.9531 17.9986L18.3711 17.4166C18.1939 17.2394 17.9583 17.1418 17.7077 17.1418C17.4571 17.1418 17.2214 17.2394 17.0442 17.4166C16.6785 17.7824 16.6785 18.3776 17.0442 18.7434L18.2922 19.9914C18.4751 20.1743 18.7154 20.2657 18.9556 20.2657C19.1959 20.2657 19.4362 20.1743 19.6191 19.9914C20.092 19.5184 20.569 19.0346 21.0303 18.5667C21.3083 18.2847 21.5863 18.0028 21.8649 17.7216C22.2282 17.3549 22.2263 16.7607 21.8605 16.397ZM21.3322 17.1937C21.053 17.4754 20.7746 17.7578 20.4962 18.0401C20.0359 18.5071 19.5598 18.9899 19.0887 19.461C19.0534 19.4963 19.0055 19.5161 18.9556 19.5161C18.9057 19.5161 18.8579 19.4963 18.8225 19.461L17.5745 18.2131C17.5393 18.1777 17.5195 18.1299 17.5195 18.08C17.5195 18.0301 17.5393 17.9822 17.5745 17.9469C17.6225 17.899 17.6785 17.8918 17.7076 17.8918C17.7368 17.8918 17.7928 17.899 17.8407 17.9469L18.6892 18.7954C18.724 18.8302 18.7654 18.8578 18.8109 18.8766C18.8564 18.8955 18.9051 18.9052 18.9544 18.9052H18.9553C19.0047 18.9051 19.0536 18.8952 19.0992 18.8761C19.1447 18.857 19.1861 18.8291 19.2209 18.794L21.0673 16.9292C21.0845 16.9118 21.105 16.898 21.1275 16.8886C21.1501 16.8792 21.1743 16.8743 21.1987 16.8743C21.229 16.8756 21.2837 16.8811 21.3317 16.9288C21.4047 17.0014 21.4049 17.1203 21.3322 17.1937Z" fill="#A5A5A5"/>
</svg>
