<svg width="24" height="24" viewBox="0 0 24 24" fill="none" xmlns="http://www.w3.org/2000/svg">
<g clip-path="url(#clip0_188_3366)">
<path d="M9 11C8.448 11 8 10.553 8 10C8 8.692 9.038 8.121 9.481 7.877C9.771 7.718 10.076 7.342 9.983 6.811C9.914 6.419 9.581 6.086 9.19 6.018C8.884 5.962 8.588 6.04 8.358 6.234C8.13 6.424 8 6.704 8 7.001C8 7.554 7.552 8.001 7 8.001C6.448 8.001 6 7.554 6 7.001C6 6.112 6.391 5.274 7.072 4.702C7.753 4.13 8.649 3.888 9.535 4.049C10.744 4.26 11.739 5.254 11.952 6.466C12.175 7.738 11.57 9.009 10.446 9.63C9.999 9.876 9.999 9.948 9.999 10.001C9.999 10.554 9.551 11.001 8.999 11.001L9 11ZM17.977 9.649C18.162 7.038 17.209 4.481 15.365 2.636C13.521 0.790003 10.968 -0.170997 8.35 0.0220032C3.824 0.343003 0 4.581 0 9.277V14C0 16.205 1.792 17.999 3.994 17.999H8.191C13.348 17.999 17.647 14.331 17.977 9.649ZM13.244 4.757C14.473 5.986 15.108 7.693 14.985 9.438C14.769 12.504 11.721 14.999 8.192 14.999H3.994C3.446 14.999 3 14.551 3 14V9.277C3 6.15 5.599 3.224 8.561 3.014C8.704 3.004 8.847 2.999 8.989 2.999C10.583 2.999 12.114 3.627 13.243 4.757H13.244ZM9.001 11.999C8.449 11.999 8.001 12.447 8.001 12.999C8.001 13.551 8.449 13.999 9.001 13.999C9.553 13.999 10.001 13.551 10.001 12.999C10.001 12.447 9.553 11.999 9.001 11.999ZM20.984 9.783C20.667 9.523 20.331 9.3 19.988 9.096C19.982 10.247 19.795 11.366 19.436 12.431C20.421 13.413 21.001 14.787 21.001 16.2V20.5C21.001 20.775 20.777 21 20.501 21H16.641C14.951 21 13.422 20.392 12.372 19.329C11.333 19.68 10.23 19.888 9.092 19.959C9.304 20.312 9.536 20.657 9.808 20.98C11.426 22.899 13.916 24.001 16.641 24.001H20.501C22.431 24.001 24.001 22.431 24.001 20.501V16.201C24.001 13.699 22.901 11.361 20.984 9.785V9.783Z" fill="#3498D8"/>
</g>
<defs>
<clipPath id="clip0_188_3366">
<rect width="24" height="24" fill="white"/>
</clipPath>
</defs>
</svg>
