<svg width="56" height="56" viewBox="0 0 56 56" fill="none" xmlns="http://www.w3.org/2000/svg">
<circle cx="28" cy="28" r="28" fill="white"/>
<g clip-path="url(#clip0_169_2604)">
<path d="M33.5 17.917C32.3739 17.9345 31.2724 18.2489 30.3067 18.8283C29.341 19.4077 28.5453 20.2317 28 21.217C27.4546 20.2317 26.6589 19.4077 25.6932 18.8283C24.7275 18.2489 23.626 17.9345 22.5 17.917C20.7049 17.995 19.0137 18.7803 17.7957 20.1012C16.5778 21.4222 15.9322 23.1715 16 24.967C16 29.514 20.786 34.48 24.8 37.847C25.6962 38.6001 26.8293 39.013 28 39.013C29.1706 39.013 30.3037 38.6001 31.2 37.847C35.214 34.48 40 29.514 40 24.967C40.0677 23.1715 39.4221 21.4222 38.2042 20.1012C36.9863 18.7803 35.295 17.995 33.5 17.917ZM29.915 36.317C29.3789 36.7684 28.7007 37.0159 28 37.0159C27.2992 37.0159 26.621 36.7684 26.085 36.317C20.947 32.006 18 27.87 18 24.967C17.9316 23.7017 18.3663 22.4607 19.2093 21.5147C20.0523 20.5687 21.2352 19.9944 22.5 19.917C23.7647 19.9944 24.9476 20.5687 25.7906 21.5147C26.6336 22.4607 27.0683 23.7017 27 24.967C27 25.2322 27.1053 25.4866 27.2929 25.6741C27.4804 25.8616 27.7347 25.967 28 25.967C28.2652 25.967 28.5195 25.8616 28.7071 25.6741C28.8946 25.4866 29 25.2322 29 24.967C28.9316 23.7017 29.3663 22.4607 30.2093 21.5147C31.0523 20.5687 32.2352 19.9944 33.5 19.917C34.7647 19.9944 35.9476 20.5687 36.7906 21.5147C37.6336 22.4607 38.0683 23.7017 38 24.967C38 27.87 35.053 32.006 29.915 36.313V36.317Z" fill="#3498D8"/>
</g>
<defs>
<clipPath id="clip0_169_2604">
<rect width="24" height="24" fill="white" transform="translate(16 16)"/>
</clipPath>
</defs>
</svg>
