<svg width="24" height="24" viewBox="0 0 24 24" fill="none" xmlns="http://www.w3.org/2000/svg">
<g clip-path="url(#clip0_169_2734)">
<path d="M19 4H5C3.67392 4 2.40215 4.52678 1.46447 5.46447C0.526784 6.40215 0 7.67392 0 9L0 15C0 16.3261 0.526784 17.5979 1.46447 18.5355C2.40215 19.4732 3.67392 20 5 20H19C21.757 20 24 17.757 24 15V9C24 6.243 21.757 4 19 4ZM8.12 16C7.96167 16 7.80802 15.9462 7.68415 15.8476C7.56029 15.749 7.47351 15.6113 7.438 15.457L7.173 14.3H4.764L4.49 15.461C4.44277 15.6366 4.32904 15.787 4.1729 15.8802C4.01675 15.9734 3.83045 16.0023 3.65344 15.9605C3.47643 15.9188 3.3226 15.8098 3.22453 15.6567C3.12645 15.5035 3.09183 15.3182 3.128 15.14L4.541 9.147C4.5911 8.93355 4.68769 8.73378 4.82388 8.56195C4.96007 8.39012 5.1325 8.25047 5.32887 8.15295C5.52524 8.05543 5.74072 8.00245 5.95992 7.99779C6.17913 7.99314 6.39666 8.03691 6.597 8.126C7.036 8.31 7.331 8.732 7.439 9.196L8.802 15.144C8.82543 15.2465 8.82547 15.353 8.80212 15.4555C8.77876 15.558 8.73261 15.654 8.66708 15.7362C8.60156 15.8184 8.51836 15.8849 8.42365 15.9305C8.32893 15.9762 8.22515 15.9999 8.12 16ZM22 15C22 16.654 20.654 18 19 18H12V6H19C20.654 6 22 7.346 22 9V15ZM20.5 9.616V9.637C20.5 9.977 20.224 10.253 19.884 10.253H19.568C19.447 11.528 18.951 12.984 17.961 14.119C18.5646 14.4812 19.2434 14.6999 19.945 14.758C20.26 14.788 20.5 15.054 20.5 15.371V15.392C20.4999 15.4783 20.4817 15.5636 20.4466 15.6424C20.4115 15.7212 20.3602 15.7917 20.2961 15.8495C20.232 15.9073 20.1566 15.951 20.0746 15.9777C19.9925 16.0045 19.9058 16.0138 19.82 16.005C18.683 15.896 17.761 15.516 17.012 14.983C16.259 15.521 15.326 15.898 14.18 16.005C14.0942 16.0135 14.0076 16.004 13.9257 15.977C13.8438 15.95 13.7684 15.9062 13.7045 15.8484C13.6405 15.7906 13.5894 15.72 13.5544 15.6412C13.5193 15.5625 13.5011 15.4772 13.501 15.391V15.37C13.502 15.2152 13.5608 15.0664 13.6659 14.9528C13.771 14.8392 13.9148 14.769 14.069 14.756C14.7679 14.6986 15.4443 14.4813 16.046 14.121C15.7208 13.7464 15.4412 13.3345 15.213 12.894C15.1648 12.8001 15.1415 12.6954 15.1455 12.5899C15.1495 12.4844 15.1805 12.3817 15.2357 12.2917C15.2908 12.2017 15.3682 12.1274 15.4604 12.0759C15.5526 12.0245 15.6564 11.9977 15.762 11.998H15.772C15.998 11.998 16.209 12.12 16.313 12.32C16.498 12.672 16.729 13.011 17.006 13.322C17.824 12.402 18.198 11.214 18.309 10.251H14.118C13.9546 10.251 13.7979 10.1861 13.6824 10.0706C13.5669 9.95506 13.502 9.79837 13.502 9.635V9.614C13.502 9.274 13.778 8.998 14.118 8.998H16.375V8.614C16.375 8.274 16.651 7.998 16.991 7.998H17.012C17.352 7.998 17.628 8.274 17.628 8.614V8.998H19.885C20.225 8.998 20.501 9.274 20.501 9.614L20.5 9.616ZM6.065 9.463L6.852 12.9H5.095L5.906 9.463C5.91006 9.44508 5.92009 9.42907 5.93444 9.4176C5.9488 9.40614 5.96663 9.39989 5.985 9.39989C6.00337 9.39989 6.0212 9.40614 6.03556 9.4176C6.04991 9.42907 6.06094 9.44508 6.065 9.463Z" fill="#3498D8"/>
</g>
<defs>
<clipPath id="clip0_169_2734">
<rect width="24" height="24" fill="white"/>
</clipPath>
</defs>
</svg>
