<svg width="18" height="18" viewBox="0 0 18 18" fill="none" xmlns="http://www.w3.org/2000/svg">
<g clip-path="url(#clip0_266_1974)">
<path d="M4.87481 12.0003C5.09732 12.0003 5.31482 12.0662 5.49983 12.1898C5.68484 12.3135 5.82903 12.4892 5.91418 12.6947C5.99933 12.9003 6.02161 13.1265 5.9782 13.3447C5.93479 13.563 5.82764 13.7634 5.67031 13.9207C5.51297 14.0781 5.31252 14.1852 5.09429 14.2286C4.87606 14.272 4.64986 14.2498 4.44429 14.1646C4.23873 14.0795 4.06303 13.9353 3.93941 13.7503C3.81579 13.5653 3.74981 13.3478 3.74981 13.1253C3.74981 12.8269 3.86834 12.5407 4.07932 12.3298C4.2903 12.1188 4.57645 12.0003 4.87481 12.0003ZM7.12481 17.896C8.16528 17.702 9.13522 17.2341 9.93474 16.5405C10.7343 15.847 11.3345 14.9529 11.6736 13.9503C11.9944 13.0231 12.077 12.0301 11.9136 11.0628L12.4243 10.546C12.6339 10.3343 12.7509 10.0481 12.7498 9.75025V8.25025H13.1248C13.6221 8.25025 14.099 8.05271 14.4506 7.70108C14.8023 7.34945 14.9998 6.87253 14.9998 6.37525V6.00025H15.9381C16.3063 6.00013 16.6665 5.89209 16.974 5.68948C17.2815 5.48687 17.5229 5.19858 17.6683 4.86025C17.9384 4.23866 18.0457 3.55856 17.9803 2.884C17.8924 2.0844 17.51 1.34615 16.9076 0.81306C16.3052 0.279969 15.5259 -0.00978098 14.7216 0.000252104C14.1794 -0.00118648 13.6423 0.104927 13.1413 0.312452C12.6404 0.519977 12.1856 0.824791 11.8033 1.20925L6.92831 6.08425C5.96301 5.9228 4.97259 6.00688 4.04831 6.32875C2.70583 6.79224 1.57127 7.71691 0.846484 8.93829C0.121693 10.1597 -0.14634 11.5986 0.0900647 12.999C0.326469 14.3994 1.05198 15.6706 2.13754 16.5864C3.2231 17.5021 4.59832 18.0031 6.01856 18.0003C6.38972 17.9992 6.76 17.9643 7.12481 17.896ZM6.98606 8.40025C7.17814 8.45366 7.38096 8.45507 7.57376 8.40433C7.76655 8.3536 7.94241 8.25254 8.08331 8.1115L13.3941 2.8015C13.5679 2.62638 13.7747 2.48749 14.0026 2.39287C14.2304 2.29824 14.4748 2.24977 14.7216 2.25025C14.9675 2.2444 15.2071 2.32885 15.395 2.48763C15.583 2.6464 15.7062 2.86852 15.7416 3.112C15.7635 3.32663 15.7431 3.54347 15.6816 3.75025H14.6248C14.1275 3.75025 13.6506 3.9478 13.299 4.29943C12.9474 4.65106 12.7498 5.12797 12.7498 5.62525V6.00025H12.3748C11.8775 6.00025 11.4006 6.1978 11.049 6.54943C10.6974 6.90106 10.4998 7.37797 10.4998 7.87525V9.28825L9.88331 9.9115C9.74371 10.0527 9.64394 10.2282 9.59415 10.4204C9.54436 10.6126 9.54631 10.8146 9.59981 11.0058C9.80877 11.7327 9.7894 12.5064 9.54431 13.222C9.33751 13.8235 8.98113 14.3624 8.50869 14.7883C8.03624 15.2141 7.46325 15.5127 6.84361 15.6561C6.22396 15.7995 5.57802 15.783 4.96654 15.608C4.35505 15.4331 3.79811 15.1055 3.34809 14.656C2.89807 14.2066 2.56977 13.65 2.39404 13.0388C2.21832 12.4275 2.20095 11.7816 2.34358 11.1618C2.48621 10.5419 2.78414 9.96858 3.20936 9.4956C3.63458 9.02262 4.17311 8.66556 4.77431 8.458C5.15846 8.32545 5.56194 8.25753 5.96831 8.257C6.31249 8.25831 6.65489 8.30651 6.98606 8.40025Z" fill="#A5A5A5"/>
</g>
<defs>
<clipPath id="clip0_266_1974">
<rect width="18" height="18" fill="white"/>
</clipPath>
</defs>
</svg>
