<svg width="24" height="24" viewBox="0 0 24 24" fill="none" xmlns="http://www.w3.org/2000/svg">
<g clip-path="url(#clip0_177_3115)">
<path d="M6.50008 16C6.79675 16 7.08676 16.088 7.33343 16.2528C7.58011 16.4176 7.77237 16.6519 7.8859 16.926C7.99943 17.2001 8.02913 17.5017 7.97126 17.7926C7.91338 18.0836 7.77052 18.3509 7.56074 18.5607C7.35096 18.7704 7.08368 18.9133 6.79271 18.9712C6.50174 19.0291 6.20014 18.9993 5.92605 18.8858C5.65196 18.7723 5.4177 18.58 5.25287 18.3334C5.08805 18.0867 5.00008 17.7967 5.00008 17.5C5.00008 17.1022 5.15811 16.7206 5.43942 16.4393C5.72072 16.158 6.10225 16 6.50008 16ZM9.50008 23.861C10.8874 23.6023 12.1806 22.9784 13.2467 22.0537C14.3127 21.129 15.113 19.9368 15.5651 18.6C15.9929 17.3638 16.1029 16.0399 15.8851 14.75L16.5661 14.061C16.8455 13.7787 17.0016 13.3972 17.0001 13V11H17.5001C18.1631 11 18.799 10.7366 19.2678 10.2678C19.7367 9.79893 20.0001 9.16304 20.0001 8.5V8H21.2511C21.7421 7.99984 22.2223 7.85578 22.6323 7.58563C23.0423 7.31549 23.3642 6.9311 23.5581 6.48C23.9182 5.65122 24.0613 4.74441 23.9741 3.845C23.8569 2.77887 23.347 1.79453 22.5438 1.08374C21.7406 0.372957 20.7015 -0.013377 19.6291 4.44852e-07C18.9061 -0.00191767 18.19 0.139568 17.5221 0.416267C16.8542 0.692967 16.2478 1.09939 15.7381 1.612L9.23808 8.112C7.951 7.89673 6.63045 8.00884 5.39808 8.438C3.60809 9.05598 2.09536 10.2889 1.12897 11.9174C0.162583 13.5459 -0.194794 15.4644 0.120412 17.3316C0.435618 19.1989 1.40297 20.8938 2.85038 22.1148C4.2978 23.3358 6.13142 24.0039 8.02508 24C8.51995 23.9986 9.01367 23.9521 9.50008 23.861ZM9.31508 11.2C9.57118 11.2712 9.8416 11.2731 10.0987 11.2054C10.3557 11.1378 10.5902 11.003 10.7781 10.815L17.8591 3.735C18.0908 3.50151 18.3666 3.31632 18.6704 3.19015C18.9743 3.06399 19.3001 2.99936 19.6291 3C19.957 2.9922 20.2765 3.1048 20.527 3.3165C20.7776 3.5282 20.942 3.82436 20.9891 4.149C21.0183 4.43517 20.9911 4.72429 20.9091 5H19.5001C18.837 5 18.2012 5.26339 17.7323 5.73223C17.2635 6.20107 17.0001 6.83696 17.0001 7.5V8H16.5001C15.837 8 15.2012 8.26339 14.7323 8.73223C14.2635 9.20107 14.0001 9.83696 14.0001 10.5V12.384L13.1781 13.215C12.9919 13.4032 12.8589 13.6373 12.7925 13.8936C12.7261 14.1498 12.7287 14.4191 12.8001 14.674C13.0787 15.6433 13.0529 16.6748 12.7261 17.629C12.4503 18.431 11.9752 19.1496 11.3452 19.7173C10.7153 20.2851 9.95133 20.6833 9.12513 20.8745C8.29894 21.0657 7.43769 21.0437 6.62238 20.8104C5.80706 20.5771 5.06448 20.1403 4.46445 19.541C3.86443 18.9418 3.42668 18.1997 3.19238 17.3847C2.95808 16.5697 2.93493 15.7085 3.1251 14.882C3.31527 14.0556 3.71251 13.2911 4.27947 12.6605C4.84643 12.0298 5.56447 11.5537 6.36608 11.277C6.87828 11.1003 7.41624 11.0097 7.95808 11.009C8.41699 11.0107 8.87352 11.075 9.31508 11.2Z" fill="#3498D8"/>
</g>
<defs>
<clipPath id="clip0_177_3115">
<rect width="24" height="24" fill="white"/>
</clipPath>
</defs>
</svg>
