<svg width="18" height="18" viewBox="0 0 18 18" fill="none" xmlns="http://www.w3.org/2000/svg">
<g clip-path="url(#clip0_266_1963)">
<path d="M5.625 9.75C4.95749 9.75 4.30497 9.55206 3.74995 9.18121C3.19493 8.81036 2.76235 8.28326 2.50691 7.66656C2.25146 7.04986 2.18462 6.37126 2.31485 5.71657C2.44507 5.06189 2.76651 4.46052 3.23851 3.98852C3.71052 3.51651 4.31188 3.19508 4.96657 3.06485C5.62126 2.93463 6.29986 3.00146 6.91656 3.25691C7.53326 3.51235 8.06036 3.94494 8.43121 4.49995C8.80206 5.05497 9 5.70749 9 6.375C8.99901 7.2698 8.64311 8.12767 8.01039 8.76039C7.37767 9.39311 6.5198 9.74901 5.625 9.75ZM5.625 5.25C5.4025 5.25 5.18499 5.31598 4.99998 5.4396C4.81498 5.56321 4.67078 5.73892 4.58564 5.94448C4.50049 6.15005 4.47821 6.37625 4.52162 6.59448C4.56502 6.81271 4.67217 7.01316 4.8295 7.1705C4.98684 7.32783 5.18729 7.43498 5.40552 7.47838C5.62375 7.52179 5.84995 7.49951 6.05552 7.41437C6.26109 7.32922 6.43679 7.18502 6.5604 7.00002C6.68402 6.81501 6.75 6.59751 6.75 6.375C6.75 6.07663 6.63147 5.79048 6.4205 5.57951C6.20952 5.36853 5.92337 5.25 5.625 5.25ZM11.25 16.875C11.25 15.3832 10.6574 13.9524 9.60248 12.8975C8.54758 11.8426 7.11684 11.25 5.625 11.25C4.13316 11.25 2.70242 11.8426 1.64752 12.8975C0.592632 13.9524 0 15.3832 0 16.875C0 17.1734 0.118526 17.4595 0.329505 17.6705C0.540483 17.8815 0.826631 18 1.125 18C1.42337 18 1.70952 17.8815 1.9205 17.6705C2.13147 17.4595 2.25 17.1734 2.25 16.875C2.25 15.9799 2.60558 15.1215 3.23851 14.4885C3.87145 13.8556 4.72989 13.5 5.625 13.5C6.52011 13.5 7.37855 13.8556 8.01149 14.4885C8.64442 15.1215 9 15.9799 9 16.875C9 17.1734 9.11853 17.4595 9.3295 17.6705C9.54048 17.8815 9.82663 18 10.125 18C10.4234 18 10.7095 17.8815 10.9205 17.6705C11.1315 17.4595 11.25 17.1734 11.25 16.875ZM18 13.5C18.0001 12.5043 17.717 11.5291 17.1838 10.6882C16.6506 9.84725 15.8893 9.1753 14.9886 8.75072C14.088 8.32614 13.0852 8.16645 12.0972 8.29026C11.1092 8.41408 10.1768 8.8163 9.40875 9.45C9.2948 9.54406 9.20048 9.65964 9.1312 9.79015C9.06191 9.92066 9.01901 10.0635 9.00494 10.2106C8.99088 10.3577 9.00592 10.5061 9.04921 10.6474C9.0925 10.7887 9.16319 10.92 9.25725 11.034C9.35131 11.148 9.46689 11.2423 9.5974 11.3116C9.72791 11.3808 9.87079 11.4237 10.0179 11.4378C10.165 11.4519 10.3134 11.4368 10.4547 11.3935C10.5959 11.3503 10.7273 11.2796 10.8412 11.1855C11.3771 10.7396 12.0529 10.4969 12.75 10.5C13.5456 10.5 14.3087 10.8161 14.8713 11.3787C15.4339 11.9413 15.75 12.7044 15.75 13.5C15.75 13.7984 15.8685 14.0845 16.0795 14.2955C16.2905 14.5065 16.5766 14.625 16.875 14.625C17.1734 14.625 17.4595 14.5065 17.6705 14.2955C17.8815 14.0845 18 13.7984 18 13.5ZM13.125 6.75C12.4575 6.75 11.805 6.55206 11.25 6.18121C10.6949 5.81036 10.2624 5.28326 10.0069 4.66656C9.75146 4.04986 9.68462 3.37126 9.81485 2.71657C9.94507 2.06189 10.2665 1.46052 10.7385 0.988516C11.2105 0.516514 11.8119 0.195076 12.4666 0.0648512C13.1213 -0.0653739 13.7999 0.00146234 14.4166 0.256908C15.0333 0.512354 15.5604 0.944936 15.9312 1.49995C16.3021 2.05497 16.5 2.70749 16.5 3.375C16.499 4.2698 16.1431 5.12767 15.5104 5.76039C14.8777 6.39311 14.0198 6.74901 13.125 6.75ZM13.125 2.25C12.9025 2.25 12.685 2.31598 12.5 2.4396C12.315 2.56321 12.1708 2.73892 12.0856 2.94448C12.0005 3.15005 11.9782 3.37625 12.0216 3.59448C12.065 3.81271 12.1722 4.01316 12.3295 4.1705C12.4868 4.32783 12.6873 4.43498 12.9055 4.47838C13.1238 4.52179 13.35 4.49951 13.5555 4.41437C13.7611 4.32922 13.9368 4.18502 14.0604 4.00002C14.184 3.81501 14.25 3.59751 14.25 3.375C14.25 3.07663 14.1315 2.79048 13.9205 2.57951C13.7095 2.36853 13.4234 2.25 13.125 2.25Z" fill="#A5A5A5"/>
</g>
<defs>
<clipPath id="clip0_266_1963">
<rect width="18" height="18" fill="white"/>
</clipPath>
</defs>
</svg>
