<svg width="24" height="24" viewBox="0 0 24 24" fill="none" xmlns="http://www.w3.org/2000/svg">
<g clip-path="url(#clip0_501_4675)">
<path d="M2.8125 5.625V21.8906C2.8125 22.279 3.12727 22.5938 3.51562 22.5938H11.9531V23.2969C11.9531 23.4241 11.9876 23.549 12.053 23.6582C12.1184 23.7674 12.2122 23.8568 12.3244 23.9168C12.4366 23.9769 12.5631 24.0054 12.6902 23.9992C12.8173 23.993 12.9404 23.9525 13.0463 23.8819L14.7656 22.7356L16.485 23.8819C16.5909 23.9525 16.7139 23.993 16.8411 23.9991C16.9682 24.0053 17.0946 23.9768 17.2068 23.9168C17.319 23.8567 17.4128 23.7673 17.4782 23.6582C17.5436 23.549 17.5781 23.4241 17.5781 23.2969V22.5938H20.3906C20.779 22.5938 21.0938 22.279 21.0938 21.8906V2.8125C21.0938 1.26159 19.8322 0 18.2812 0H2.8125C1.26178 0 0 1.26159 0 2.8125C0 4.36341 1.26178 5.625 2.8125 5.625ZM14.7656 18.2812C13.6025 18.2812 12.6562 17.3349 12.6562 16.1719C12.6562 15.0088 13.6026 14.0625 14.7656 14.0625C15.9287 14.0625 16.875 15.0088 16.875 16.1719C16.875 17.335 15.9287 18.2812 14.7656 18.2812ZM16.1719 21.9831L15.1556 21.3056C15.0401 21.2286 14.9044 21.1875 14.7656 21.1875C14.6268 21.1875 14.4911 21.2286 14.3756 21.3056L13.3594 21.9831V19.3931C13.8027 19.5876 14.2815 19.6879 14.7656 19.6875C15.2497 19.6878 15.7286 19.5875 16.1719 19.3931V21.9831ZM18.2812 1.40625C19.0567 1.40625 19.6875 2.03705 19.6875 2.8125V21.1875H17.5781V18.2789C18.0194 17.6913 18.2812 16.9616 18.2812 16.1719C18.2812 14.2334 16.7041 12.6562 14.7656 12.6562C12.8271 12.6562 11.25 14.2334 11.25 16.1719C11.25 16.9616 11.5118 17.6913 11.9531 18.2789V21.1875H4.21875V5.625H18.4753C18.8637 5.625 19.1784 5.31023 19.1784 4.92188C19.1784 4.53352 18.8637 4.21875 18.4753 4.21875H18.2812C17.5058 4.21875 16.875 3.58795 16.875 2.8125C16.875 2.03705 17.5058 1.40625 18.2812 1.40625ZM2.8125 1.40569H15.8461C15.5983 1.8331 15.4682 2.31848 15.4688 2.8125C15.4681 3.30635 15.5983 3.79155 15.8461 4.21875H2.8125C2.03705 4.21875 1.40625 3.58795 1.40625 2.8125C1.40625 2.03705 2.03705 1.40569 2.8125 1.40569Z" fill="#A5A5A5"/>
<path d="M17.5781 7.03125H6.32812C5.93977 7.03125 5.625 7.34602 5.625 7.73438C5.625 8.12273 5.93977 8.4375 6.32812 8.4375H17.5781C17.9665 8.4375 18.2812 8.12273 18.2812 7.73438C18.2812 7.34602 17.9665 7.03125 17.5781 7.03125ZM17.5781 9.84375H6.32812C5.93977 9.84375 5.625 10.1585 5.625 10.5469C5.625 10.9352 5.93977 11.25 6.32812 11.25H17.5781C17.9665 11.25 18.2812 10.9352 18.2812 10.5469C18.2812 10.1585 17.9665 9.84375 17.5781 9.84375ZM9.14062 12.6562H6.32812C5.93977 12.6562 5.625 12.971 5.625 13.3594C5.625 13.7477 5.93977 14.0625 6.32812 14.0625H9.14062C9.52898 14.0625 9.84375 13.7477 9.84375 13.3594C9.84375 12.971 9.52898 12.6562 9.14062 12.6562ZM9.14062 15.4688H6.32812C5.93977 15.4688 5.625 15.7835 5.625 16.1719C5.625 16.5602 5.93977 16.875 6.32812 16.875H9.14062C9.52898 16.875 9.84375 16.5602 9.84375 16.1719C9.84375 15.7835 9.52898 15.4688 9.14062 15.4688Z" fill="#A5A5A5"/>
</g>
<defs>
<clipPath id="clip0_501_4675">
<rect width="24" height="24" fill="white"/>
</clipPath>
</defs>
</svg>
