<svg width="24" height="24" viewBox="0 0 24 24" fill="none" xmlns="http://www.w3.org/2000/svg">
<path d="M19.0442 8.50955V7.04435C19.0442 3.15386 15.8903 0 11.9998 0C8.10932 0 4.95552 3.15386 4.95552 7.0443V8.5095C3.10468 9.45402 1.93879 11.3556 1.93652 13.4335V18.4651C1.93987 21.5206 4.41592 23.9967 7.47133 24H16.5283C19.5837 23.9966 22.0598 21.5206 22.0631 18.4651V13.4335C22.0609 11.3556 20.895 9.45402 19.0442 8.50955ZM11.9998 3.01899C14.2229 3.01899 16.0251 4.82119 16.0251 7.0443V7.89867H7.97451V7.0443C7.97451 4.82119 9.77671 3.01899 11.9998 3.01899ZM19.0442 18.4651C19.0442 19.8546 17.9178 20.981 16.5284 20.981H7.47137C6.08193 20.981 4.95556 19.8546 4.95556 18.4651V13.4335C4.95556 12.0441 6.08193 10.9177 7.47137 10.9177H16.5284C17.9178 10.9177 19.0442 12.0441 19.0442 13.4335V18.4651Z" fill="#3498D8"/>
<path d="M11.4968 13.9366H12.5031C13.3368 13.9366 14.0126 14.6125 14.0126 15.4461C14.0126 16.2798 13.3368 16.9556 12.5031 16.9556H11.4968C10.6631 16.9556 9.9873 16.2798 9.9873 15.4461C9.9873 14.6125 10.6631 13.9366 11.4968 13.9366Z" fill="#3498D8"/>
</svg>
