<svg width="20" height="20" viewBox="0 0 20 20" fill="none" xmlns="http://www.w3.org/2000/svg">
<g clip-path="url(#clip0_604_5610)">
<path d="M19.9726 8.6809C19.7211 6.82862 18.9573 5.08341 17.7671 3.64202C16.5769 2.20063 15.0077 1.12039 13.2365 0.52309C11.4652 -0.0742143 9.56228 -0.164829 7.74227 0.261462C5.92227 0.687753 4.25754 1.614 2.93577 2.93577C1.614 4.25754 0.687753 5.92227 0.261462 7.74227C-0.164829 9.56228 -0.0742143 11.4652 0.52309 13.2365C1.12039 15.0077 2.20063 16.5769 3.64202 17.7671C5.08341 18.9573 6.82862 19.7211 8.6809 19.9726C8.81602 19.9902 8.95214 19.9991 9.0884 19.9992C9.9673 19.992 10.8076 19.6373 11.4259 19.0126L19.0092 11.4292C19.3692 11.0753 19.6433 10.6435 19.8103 10.167C19.9773 9.69057 20.0328 9.18217 19.9726 8.6809ZM1.72257 9.0759C1.9467 7.09817 2.86897 5.26526 4.32357 3.90667C5.77817 2.54807 7.6697 1.75291 9.6581 1.66414C11.6465 1.57536 13.6014 2.19879 15.1713 3.42235C16.7411 4.64592 17.8231 6.38935 18.2226 8.33923C15.6123 8.37077 13.1177 9.42126 11.2712 11.2665C9.4247 13.1118 8.37253 15.6056 8.33923 18.2159C6.28939 17.8025 4.47025 16.6327 3.24363 14.9392C2.01701 13.2456 1.4728 11.1524 1.71924 9.0759H1.72257ZM10.2501 17.8334C10.1783 17.9023 10.1008 17.965 10.0184 18.0209C10.0993 15.9236 10.9686 13.9341 12.4527 12.4499C13.9367 10.9657 15.9261 10.0962 18.0234 10.0151C17.9681 10.0979 17.9056 10.1757 17.8367 10.2476L10.2501 17.8334Z" fill="#3498D8"/>
</g>
<defs>
<clipPath id="clip0_604_5610">
<rect width="20" height="20" fill="white"/>
</clipPath>
</defs>
</svg>
