<svg width="33" height="32" viewBox="0 0 33 32" fill="none" xmlns="http://www.w3.org/2000/svg">
<g clip-path="url(#clip0_136_2169)">
<path d="M4.38337 16C4.38337 15.4823 3.96362 15.0625 3.44587 15.0625H1.4375C0.91975 15.0625 0.5 15.4823 0.5 16C0.5 16.5177 0.91975 16.9375 1.4375 16.9375H3.44587C3.96362 16.9375 4.38337 16.5177 4.38337 16ZM31.5625 15.0625H29.5541C29.0364 15.0625 28.6166 15.4823 28.6166 16C28.6166 16.5177 29.0364 16.9375 29.5541 16.9375H31.5625C32.0802 16.9375 32.5 16.5177 32.5 16C32.5 15.4823 32.0802 15.0625 31.5625 15.0625ZM16.5 3.88331C17.0177 3.88331 17.4375 3.46356 17.4375 2.94581V0.9375C17.4375 0.41975 17.0177 0 16.5 0C15.9823 0 15.5625 0.41975 15.5625 0.9375V2.94581C15.5625 3.46356 15.9823 3.88331 16.5 3.88331ZM2.98669 9.28037L4.72388 10.2846C5.22538 10.5744 5.77906 10.3325 6.00469 9.94213C6.26381 9.49388 6.11044 8.92044 5.66225 8.66131L3.92506 7.65712C3.47675 7.398 2.90337 7.55131 2.64425 7.99956C2.38506 8.44788 2.53844 9.02125 2.98669 9.28037ZM28.2761 10.2846L30.0133 9.28037C30.4616 9.02125 30.6149 8.44781 30.3557 7.99956C30.0966 7.55125 29.5231 7.398 29.0749 7.65712L27.3377 8.66131C26.8895 8.92044 26.7361 9.49388 26.9953 9.94213C27.2153 10.3226 27.7632 10.5811 28.2761 10.2846ZM9.161 5.16331C9.38125 5.54481 9.92937 5.80219 10.4416 5.50644C10.8901 5.24756 11.0437 4.67419 10.7847 4.22581L9.78063 2.48662C9.52169 2.03819 8.94844 1.88463 8.5 2.1435C8.05156 2.40238 7.89794 2.97575 8.15688 3.42412L9.161 5.16331ZM22.5584 5.5065C23.0592 5.79569 23.6131 5.55475 23.839 5.16337L24.8431 3.42419C25.1021 2.97581 24.9484 2.40244 24.5 2.14356C24.0516 1.88456 23.4783 2.03825 23.2194 2.48669L22.2153 4.22587C21.9563 4.67425 22.1099 5.24756 22.5584 5.5065ZM29.5541 28.6083H3.44587C2.92812 28.6083 2.50837 29.0281 2.50837 29.5458V31.0625C2.50837 31.5802 2.92812 32 3.44587 32H29.5541C30.0719 32 30.4916 31.5802 30.4916 31.0625V29.5458C30.4916 29.0281 30.0719 28.6083 29.5541 28.6083ZM5.52081 24.5917V25.6625C5.52081 26.2529 5.04044 26.7333 4.45 26.7333H28.55C27.9596 26.7333 27.4792 26.2529 27.4792 25.6625V24.5917C27.4792 24.0739 27.0594 23.6542 26.5417 23.6542H6.45831C5.94056 23.6542 5.52081 24.0739 5.52081 24.5917ZM12.55 16C12.55 13.7911 14.3475 12.05 16.5 12.05C18.6517 12.05 20.45 13.7904 20.45 16V21.7792H26.475V16C26.475 10.4998 22.0002 6.025 16.5 6.025C10.9998 6.025 6.525 10.4998 6.525 16V21.7792H12.55V16Z" fill="#FF6B6B"/>
<path d="M14.4248 16V21.7792H18.5748V16C18.5748 14.8354 17.6251 13.925 16.4998 13.925C15.3705 13.925 14.4248 14.8396 14.4248 16Z" fill="#FF6B6B"/>
</g>
<defs>
<clipPath id="clip0_136_2169">
<rect width="32" height="32" fill="white" transform="translate(0.5)"/>
</clipPath>
</defs>
</svg>
