<svg width="32" height="32" viewBox="0 0 32 32" fill="none" xmlns="http://www.w3.org/2000/svg">
<g clip-path="url(#clip0_136_2160)">
<path d="M16.0001 7.98512C11.5806 7.98512 7.9852 11.5812 7.9852 16.0007C7.9852 20.4202 11.5806 24.0163 16.0001 24.0163C20.4189 24.0163 24.015 20.4209 24.015 16.0007C24.015 11.5805 20.4189 7.98512 16.0001 7.98512ZM16.0001 5.62905C15.5854 5.62905 15.1878 5.46439 14.8945 5.17126C14.6013 4.87813 14.4364 4.48054 14.4362 4.0659V1.56386C14.4362 1.1491 14.601 0.751326 14.8943 0.458045C15.1875 0.164764 15.5853 0 16.0001 0C16.4148 0 16.8126 0.164764 17.1059 0.458045C17.3992 0.751326 17.5639 1.1491 17.5639 1.56386V4.0659C17.5638 4.48054 17.3989 4.87813 17.1057 5.17126C16.8124 5.46439 16.4147 5.62905 16.0001 5.62905ZM16.0001 26.3702C15.7947 26.3702 15.5914 26.4107 15.4016 26.4893C15.2119 26.5679 15.0395 26.6831 14.8943 26.8283C14.749 26.9735 14.6339 27.1459 14.5553 27.3356C14.4767 27.5254 14.4362 27.7287 14.4362 27.9341V30.4354C14.4362 30.8502 14.601 31.248 14.8943 31.5412C15.1875 31.8345 15.5853 31.9993 16.0001 31.9993C16.4148 31.9993 16.8126 31.8345 17.1059 31.5412C17.3992 31.248 17.5639 30.8502 17.5639 30.4354V27.9341C17.5638 27.5194 17.3989 27.1217 17.1057 26.8285C16.8125 26.5353 16.4148 26.3704 16.0001 26.3702ZM23.3326 8.66679C23.0395 8.37342 22.8749 7.9757 22.8749 7.56103C22.8749 7.14635 23.0395 6.74864 23.3326 6.45527L25.1019 4.68592C25.2466 4.53821 25.4191 4.42066 25.6095 4.34006C25.7999 4.25945 26.0043 4.21739 26.2111 4.21631C26.4178 4.21524 26.6227 4.25516 26.8139 4.33378C27.0051 4.4124 27.1788 4.52815 27.325 4.67434C27.4712 4.82053 27.587 4.99425 27.6656 5.18546C27.7442 5.37666 27.7841 5.58156 27.7831 5.7883C27.782 5.99504 27.7399 6.19951 27.6593 6.38989C27.5787 6.58027 27.4612 6.75278 27.3135 6.89743L25.5441 8.66679C25.2508 8.96003 24.8531 9.12477 24.4383 9.12477C24.0236 9.12477 23.6259 8.96003 23.3326 8.66679ZM8.66687 23.3339C8.52175 23.1886 8.34939 23.0732 8.15965 22.9945C7.96991 22.9159 7.76652 22.8754 7.56111 22.8754C7.3557 22.8754 7.15231 22.9159 6.96257 22.9945C6.77284 23.0732 6.60047 23.1886 6.45535 23.3339L4.686 25.1026C4.39776 25.3969 4.23729 25.793 4.23944 26.205C4.24158 26.6169 4.40617 27.0113 4.69746 27.3026C4.98874 27.5939 5.3832 27.7585 5.79513 27.7607C6.20707 27.7628 6.60321 27.6023 6.89752 27.3141L8.66687 25.544C8.81211 25.399 8.92733 25.2267 9.00595 25.0371C9.08456 24.8475 9.12503 24.6442 9.12503 24.439C9.12503 24.2337 9.08456 24.0305 9.00595 23.8408C8.92733 23.6512 8.81211 23.479 8.66687 23.3339ZM26.3703 16C26.3703 15.1362 27.0704 14.4361 27.9342 14.4361H30.4362C30.6443 14.4317 30.8513 14.4689 31.0448 14.5455C31.2384 14.622 31.4147 14.7365 31.5635 14.8821C31.7122 15.0277 31.8304 15.2016 31.9111 15.3935C31.9918 15.5854 32.0334 15.7915 32.0334 15.9996C32.0334 16.2078 31.9918 16.4139 31.9111 16.6058C31.8304 16.7977 31.7122 16.9715 31.5635 17.1172C31.4147 17.2628 31.2384 17.3773 31.0448 17.4538C30.8513 17.5304 30.6443 17.5676 30.4362 17.5632H27.9342C27.7288 17.5632 27.5255 17.5229 27.3358 17.4444C27.146 17.3659 26.9736 17.2507 26.8284 17.1056C26.6832 16.9604 26.568 16.7881 26.4894 16.5984C26.4108 16.4087 26.3703 16.2053 26.3703 16ZM5.62914 16C5.62914 15.7946 5.58869 15.5913 5.51009 15.4015C5.4315 15.2118 5.31631 15.0394 5.17109 14.8942C5.02587 14.749 4.85348 14.6338 4.66374 14.5552C4.474 14.4766 4.27064 14.4361 4.06527 14.4361H1.56395C1.35582 14.4317 1.14891 14.4689 0.955337 14.5455C0.761765 14.622 0.585431 14.7365 0.436673 14.8821C0.287916 15.0277 0.16973 15.2016 0.089044 15.3935C0.00835823 15.5854 -0.0332031 15.7915 -0.0332031 15.9996C-0.0332031 16.2078 0.00835823 16.4139 0.089044 16.6058C0.16973 16.7977 0.287916 16.9715 0.436673 17.1172C0.585431 17.2628 0.761765 17.3773 0.955337 17.4538C1.14891 17.5304 1.35582 17.5676 1.56395 17.5632H4.06598C4.48056 17.5632 4.87815 17.3985 5.1713 17.1053C5.46445 16.8122 5.62914 16.4146 5.62914 16ZM23.3326 23.3339C23.626 23.0409 24.0237 22.8762 24.4383 22.8762C24.853 22.8762 25.2507 23.0409 25.5441 23.3339L27.3135 25.1033C27.6066 25.3965 27.7713 25.7943 27.7712 26.2089C27.7712 26.6236 27.6064 27.0213 27.3131 27.3144C27.1679 27.4596 26.9955 27.5747 26.8058 27.6533C26.6161 27.7318 26.4128 27.7722 26.2074 27.7722C25.7928 27.7721 25.3951 27.6073 25.1019 27.3141L23.3326 25.5447C23.1873 25.3996 23.0721 25.2273 22.9935 25.0376C22.9148 24.848 22.8744 24.6447 22.8744 24.4393C22.8744 24.234 22.9148 24.0307 22.9935 23.841C23.0721 23.6514 23.1873 23.479 23.3326 23.3339ZM8.66687 8.66679C8.96011 8.37351 9.12485 7.97576 9.12485 7.56103C9.12485 7.1463 8.96011 6.74855 8.66687 6.45527L6.89752 4.68663C6.60232 4.40332 6.20784 4.24698 5.79871 4.25115C5.38958 4.25532 4.99837 4.41967 4.70901 4.70894C4.41965 4.99821 4.25518 5.38936 4.25088 5.79849C4.24658 6.20762 4.40279 6.60214 4.686 6.89743L6.45535 8.66679C6.60047 8.81215 6.77284 8.92748 6.96257 9.00617C7.15231 9.08486 7.3557 9.12536 7.56111 9.12536C7.76652 9.12536 7.96991 9.08486 8.15965 9.00617C8.34939 8.92748 8.52175 8.81215 8.66687 8.66679Z" fill="#A5A5A5"/>
</g>
<defs>
<clipPath id="clip0_136_2160">
<rect width="32" height="32" fill="white"/>
</clipPath>
</defs>
</svg>
