<svg width="32" height="32" viewBox="0 0 32 32" fill="none" xmlns="http://www.w3.org/2000/svg">
<path d="M31 16C31 18.9667 30.1203 21.8668 28.4721 24.3335C26.8238 26.8003 24.4812 28.7229 21.7403 29.8582C18.9994 30.9935 15.9834 31.2906 13.0737 30.7118C10.1639 30.133 7.49119 28.7044 5.3934 26.6066C3.29562 24.5088 1.86701 21.8361 1.28823 18.9263C0.709449 16.0166 1.0065 13.0006 2.14181 10.2597C3.27713 7.51885 5.19972 5.17617 7.66645 3.52795C10.1332 1.87973 13.0333 0.999993 16 0.999993C19.2473 0.989053 22.4087 2.04285 25 3.99999V2.44999C25 2.18478 25.1054 1.93042 25.2929 1.74289C25.4804 1.55535 25.7348 1.44999 26 1.44999C26.2652 1.44999 26.5196 1.55535 26.7071 1.74289C26.8947 1.93042 27 2.18478 27 2.44999V6.69999C27 6.96521 26.8947 7.21956 26.7071 7.4071C26.5196 7.59464 26.2652 7.69999 26 7.69999H21.76C21.4948 7.69999 21.2404 7.59464 21.0529 7.4071C20.8654 7.21956 20.76 6.96521 20.76 6.69999C20.76 6.43478 20.8654 6.18042 21.0529 5.99289C21.2404 5.80535 21.4948 5.69999 21.76 5.69999H23.9C21.6424 3.94237 18.8611 2.99178 16 2.99999C13.1834 3.0008 10.4432 3.91638 8.19181 5.60894C5.94044 7.30151 4.29968 9.67949 3.51645 12.385C2.73322 15.0906 2.84988 17.9773 3.8489 20.6109C4.84791 23.2444 6.67522 25.4822 9.05584 26.9876C11.4365 28.4929 14.2416 29.1844 17.0491 28.9579C19.8566 28.7314 22.5146 27.5992 24.6232 25.7317C26.7317 23.8641 28.1766 21.3623 28.7405 18.6027C29.3044 15.8431 28.9568 12.975 27.75 10.43C27.636 10.19 27.6219 9.91448 27.711 9.66412C27.8001 9.41376 27.985 9.20904 28.225 9.09499C28.465 8.98095 28.7405 8.96692 28.9909 9.056C29.2412 9.14508 29.446 9.32997 29.56 9.56999C30.5107 11.5801 31.0025 13.7764 31 16ZM14 17C14.2652 17 14.5196 16.8946 14.7071 16.7071C14.8946 16.5196 15 16.2652 15 16V12C15 11.7348 14.8946 11.4804 14.7071 11.2929C14.5196 11.1053 14.2652 11 14 11H10C9.73479 11 9.48044 11.1053 9.2929 11.2929C9.10536 11.4804 9.00001 11.7348 9.00001 12C9.00001 12.2652 9.10536 12.5196 9.2929 12.7071C9.48044 12.8946 9.73479 13 10 13H13V15H10C9.73479 15 9.48044 15.1053 9.2929 15.2929C9.10536 15.4804 9.00001 15.7348 9.00001 16V20C9.00001 20.2652 9.10536 20.5196 9.2929 20.7071C9.48044 20.8946 9.73479 21 10 21H14C14.2652 21 14.5196 20.8946 14.7071 20.7071C14.8946 20.5196 15 20.2652 15 20C15 19.7348 14.8946 19.4804 14.7071 19.2929C14.5196 19.1053 14.2652 19 14 19H11V17H14ZM22 21C22.2652 21 22.5196 20.8946 22.7071 20.7071C22.8947 20.5196 23 20.2652 23 20V12C23 11.7348 22.8947 11.4804 22.7071 11.2929C22.5196 11.1053 22.2652 11 22 11C21.7348 11 21.4804 11.1053 21.2929 11.2929C21.1054 11.4804 21 11.7348 21 12V15H19V12C19 11.7348 18.8947 11.4804 18.7071 11.2929C18.5196 11.1053 18.2652 11 18 11C17.7348 11 17.4804 11.1053 17.2929 11.2929C17.1054 11.4804 17 11.7348 17 12V16C17 16.2652 17.1054 16.5196 17.2929 16.7071C17.4804 16.8946 17.7348 17 18 17H21V20C21 20.2652 21.1054 20.5196 21.2929 20.7071C21.4804 20.8946 21.7348 21 22 21Z" fill="white"/>
</svg>
