<svg width="33" height="32" viewBox="0 0 33 32" fill="none" xmlns="http://www.w3.org/2000/svg">
<path d="M17.7787 7.518C16.1975 7.34521 14.5976 7.50681 13.0828 7.99231C11.5681 8.47781 10.1723 9.27636 8.98613 10.3361C7.79994 11.3959 6.84983 12.6933 6.19743 14.144C5.54504 15.5947 5.20495 17.1664 5.19922 18.757C5.81722 33.747 27.1832 33.7485 27.8017 18.757C27.799 15.9808 26.7767 13.3022 24.9289 11.2302C23.0811 9.15824 20.5366 7.83717 17.7787 7.518ZM16.5002 28.8005C13.8368 28.798 11.2831 27.7392 9.39922 25.8564C7.51537 23.9736 6.45519 21.4204 6.45122 18.757C7.00222 5.4255 26.0002 5.4295 26.5492 18.757C26.5452 21.4204 25.4851 23.9736 23.6012 25.8564C21.7174 27.7392 19.1637 28.798 16.5002 28.8005Z" fill="#A5A5A5"/>
<path d="M16.5002 9.747C14.1112 9.74899 11.8206 10.6989 10.1313 12.3882C8.44208 14.0774 7.49217 16.368 7.49019 18.757C7.98419 30.703 25.0182 30.6995 25.5102 18.757C25.5082 16.368 24.5583 14.0774 22.869 12.3882C21.1798 10.6989 18.8892 9.74899 16.5002 9.747ZM15.4612 21.875C15.46 22.2881 15.2954 22.684 15.0033 22.9761C14.7111 23.2682 14.3153 23.4328 13.9022 23.434H11.8242C11.4111 23.4328 11.0152 23.2682 10.7231 22.9761C10.431 22.684 10.2664 22.2881 10.2652 21.875V20.836C10.2711 20.7022 10.3284 20.5758 10.4251 20.4831C10.5219 20.3905 10.6507 20.3388 10.7847 20.3388C10.9187 20.3388 11.0475 20.3905 11.1442 20.4831C11.241 20.5758 11.2983 20.7022 11.3042 20.836V21.875C11.3045 22.0128 11.3593 22.1449 11.4568 22.2424C11.5542 22.3399 11.6864 22.3947 11.8242 22.395H13.9022C14.04 22.3947 14.1721 22.3399 14.2696 22.2424C14.3671 22.1449 14.4219 22.0128 14.4222 21.875V19.277H11.8242C11.4111 19.2758 11.0152 19.1112 10.7231 18.8191C10.431 18.527 10.2664 18.1311 10.2652 17.718V15.64C10.2655 15.2266 10.4298 14.8302 10.7221 14.5379C11.0144 14.2456 11.4108 14.0813 11.8242 14.081H13.9022C14.3156 14.0813 14.712 14.2456 15.0043 14.5379C15.2966 14.8302 15.4609 15.2266 15.4612 15.64V21.875ZM22.7357 21.875C22.7345 22.2881 22.5699 22.684 22.2778 22.9761C21.9856 23.2682 21.5898 23.4328 21.1767 23.434H19.0982C18.6852 23.4327 18.2894 23.268 17.9974 22.9759C17.7054 22.6838 17.5409 22.288 17.5397 21.875V15.64C17.54 15.2267 17.7042 14.8304 17.9964 14.5381C18.2886 14.2458 18.6849 14.0814 19.0982 14.081H21.1767C21.5901 14.0813 21.9865 14.2456 22.2788 14.5379C22.5711 14.8302 22.7354 15.2266 22.7357 15.64V21.875ZM14.7027 5.0655V6.5415C15.8951 6.37078 17.1058 6.37078 18.2982 6.5415V5.065C19.9857 4.638 19.7057 2 17.9242 2H15.0767C13.2962 2 13.0137 4.637 14.7027 5.0655ZM6.45669 7.097C6.62454 7.38593 6.88312 7.61133 7.19226 7.73819C7.50139 7.86504 7.84376 7.88624 8.16619 7.7985L8.89369 9.0455C9.84008 8.29818 10.8924 7.69591 12.0162 7.2585L11.2837 6.001C12.5357 4.7825 10.9662 2.6445 9.42369 3.533L6.96019 4.9565C6.78297 5.06063 6.62871 5.1996 6.50672 5.36503C6.38473 5.53045 6.29754 5.7189 6.25043 5.91897C6.20333 6.11904 6.19727 6.32658 6.23264 6.52906C6.268 6.73154 6.34405 6.92474 6.45619 7.097H6.45669ZM21.9457 7.679C22.7111 8.05931 23.4354 8.51721 24.1072 9.0455L24.8347 7.7985C24.9651 7.83363 25.0996 7.85112 25.2347 7.8505C26.7467 7.867 27.4007 5.728 26.0397 4.9565L23.5772 3.533C22.0342 2.6475 20.4682 4.7695 21.7172 6.001L20.9847 7.2585C21.3117 7.383 21.6342 7.5285 21.9457 7.679Z" fill="#A5A5A5"/>
<path d="M13.902 15.12C10.792 15.1685 11.354 14.6105 11.304 17.718C11.3044 17.8557 11.3593 17.9877 11.4568 18.0851C11.5542 18.1824 11.6863 18.2372 11.824 18.2375H14.422V15.6395C14.4223 15.5711 14.409 15.5034 14.383 15.4402C14.3569 15.377 14.3186 15.3195 14.2703 15.2712C14.222 15.2229 14.1645 15.1846 14.1013 15.1585C14.0381 15.1325 13.9704 15.1197 13.902 15.12ZM21.1765 15.12H19.098C19.0297 15.1198 18.9621 15.1331 18.899 15.1591C18.8358 15.1852 18.7785 15.2234 18.7302 15.2717C18.6819 15.32 18.6437 15.3773 18.6176 15.4405C18.5916 15.5036 18.5783 15.5712 18.5785 15.6395V21.8745C18.5788 22.0123 18.6336 22.1444 18.7311 22.2419C18.8286 22.3394 18.9607 22.3942 19.0985 22.3945H21.1765C21.3143 22.3942 21.4464 22.3394 21.5439 22.2419C21.6414 22.1444 21.6962 22.0123 21.6965 21.8745V15.64C21.6968 15.5716 21.6835 15.5039 21.6575 15.4407C21.6314 15.3775 21.5931 15.32 21.5448 15.2717C21.4965 15.2234 21.439 15.1851 21.3758 15.159C21.3126 15.133 21.2449 15.1197 21.1765 15.12Z" fill="#A5A5A5"/>
</svg>
