<svg width="25" height="18" viewBox="0 0 25 18" fill="none" xmlns="http://www.w3.org/2000/svg">
<path d="M17.6222 15.9286V2.0715H2.03292V15.9286H17.6222ZM19.3544 4.66971L24.5508 2.0715V15.9286L19.3544 13.3304V16.7947C19.3544 17.0244 19.2631 17.2447 19.1007 17.4071C18.9383 17.5695 18.718 17.6608 18.4883 17.6608H1.16685C0.937156 17.6608 0.716868 17.5695 0.554448 17.4071C0.392028 17.2447 0.300781 17.0244 0.300781 16.7947V1.20543C0.300781 0.97573 0.392028 0.755442 0.554448 0.593022C0.716868 0.430602 0.937156 0.339355 1.16685 0.339355H18.4883C18.718 0.339355 18.9383 0.430602 19.1007 0.593022C19.2631 0.755442 19.3544 0.97573 19.3544 1.20543V4.66971ZM19.3544 6.60625V11.3939L22.8186 13.126V4.87411L19.3544 6.60625Z" fill="white"/>
</svg>
